<?xml version="1.0" encoding="UTF-8" standalone="no"?>
<!-- Created with Inkscape (http://www.inkscape.org/) -->

<svg
   width="210mm"
   height="297mm"
   viewBox="0 0 210 297"
   version="1.1"
   id="svg1"
   xml:space="preserve"
   inkscape:version="1.4.2 (f4327f4, 2025-05-13)"
   sodipodi:docname="logo paleo heritage.svg"
   xmlns:inkscape="http://www.inkscape.org/namespaces/inkscape"
   xmlns:sodipodi="http://sodipodi.sourceforge.net/DTD/sodipodi-0.dtd"
   xmlns="http://www.w3.org/2000/svg"
   xmlns:svg="http://www.w3.org/2000/svg"><sodipodi:namedview
     id="namedview1"
     pagecolor="#ffffff"
     bordercolor="#000000"
     borderopacity="0.25"
     inkscape:showpageshadow="2"
     inkscape:pageopacity="0.0"
     inkscape:pagecheckerboard="0"
     inkscape:deskcolor="#d1d1d1"
     inkscape:document-units="mm"
     inkscape:zoom="0.44809905"
     inkscape:cx="397.23361"
     inkscape:cy="561.25984"
     inkscape:window-width="1366"
     inkscape:window-height="705"
     inkscape:window-x="-8"
     inkscape:window-y="-8"
     inkscape:window-maximized="1"
     inkscape:current-layer="layer1" /><defs
     id="defs1" /><g
     inkscape:label="Capa 1"
     inkscape:groupmode="layer"
     id="layer1"><path
       style="fill:#000000"
       d="m 77.740095,159.00152 c -4.874948,-1.36715 -9.696979,-2.71395 -10.715625,-2.99289 -1.018646,-0.27893 -2.62599,-0.71974 -3.571875,-0.97958 l -1.719792,-0.47242 v -15.20956 -15.20956 h 3.571875 c 4.137243,0 22.207421,0.63315 23.484367,0.82286 0.719926,0.10695 1.061996,0.43096 2.069447,1.96017 1.612089,2.447 3.277159,4.26254 4.813339,5.2483 4.439439,2.84878 11.413909,3.3903 16.835889,1.30718 1.83169,-0.70373 2.413,-1.09452 4.01545,-2.69943 1.1047,-1.1064 2.28954,-2.63672 2.88689,-3.72867 1.3589,-2.48405 1.59141,-2.71877 3.15415,-3.18402 1.22935,-0.366 8.57419,-1.69829 11.59828,-2.10382 1.43251,-0.19211 1.46223,-0.13344 0.86935,1.71597 -3.10966,9.70006 -10.35471,16.77652 -21.51842,21.01774 -6.20246,2.35638 -11.98285,3.29812 -20.465239,3.3342 -3.121382,0.0133 -5.816471,0.11142 -5.98909,0.21811 -0.225396,0.1393 -0.333807,2.06075 -0.384654,6.81756 l -0.0708,6.62359 z m 24.738535,-26.98323 c -6.465919,-1.55952 -10.256059,-6.08593 -10.301789,-12.30302 -0.0235,-3.2008 0.0946,-3.30229 3.33966,-2.86945 3.26087,0.43494 3.49942,0.60812 3.86339,2.80461 0.42173,2.54505 2.069689,4.65253 4.651909,5.94904 1.04484,0.52461 3.485,0.47768 4.98599,-0.0959 0.74514,-0.28474 1.40179,-0.38941 1.63065,-0.25992 0.64213,0.3633 3.29979,3.85078 3.17038,4.16028 -0.26451,0.63256 -2.52466,1.77401 -4.49639,2.27082 -1.95312,0.49213 -5.49134,0.66973 -6.8438,0.34354 z m 11.15511,-5.13901 c -0.65398,-0.7476 -1.38915,-1.73082 -1.63371,-2.18495 -0.43067,-0.79969 -0.42212,-0.87495 0.27166,-2.3917 1.65153,-3.61061 -0.29293,-6.81276 -3.85038,-6.34085 -1.21932,0.16175 -1.38571,0.11964 -1.79057,-0.45318 -0.72449,-1.02507 -1.37398,-2.32048 -1.37398,-2.74042 0,-0.65676 1.56326,-1.24692 3.67865,-1.38875 1.76302,-0.11821 2.18863,-0.0522 3.4651,0.53777 3.97868,1.83877 6.07571,6.38651 5.28594,11.46338 -0.18927,1.21667 -0.444,2.21214 -0.56608,2.21214 -0.12207,0 -0.22194,0.19712 -0.22194,0.43804 0,0.58731 -1.25712,2.20779 -1.71274,2.20779 -0.19959,0 -0.89797,-0.61167 -1.55195,-1.35927 z m -9.30302,-2.71563 c -1.06867,-0.47124 -2.61088,-1.94566 -3.15566,-3.01693 -0.24449,-0.48077 -0.51376,-1.45873 -0.59838,-2.17326 -0.12602,-1.06404 -0.0291,-1.55418 0.53566,-2.70849 0.76783,-1.56938 2.01287,-2.65533 2.89969,-2.52918 0.41103,0.0585 0.81128,0.53922 1.3554,1.62804 l 0.77213,1.54508 -0.83827,0.78344 c -0.95107,0.88884 -1.06777,1.7375 -0.35927,2.61246 1.04672,1.29265 3.30693,0.16533 3.17371,-1.58295 -0.12867,-1.68865 1.3974,-2.12061 2.69498,-0.76282 1.6714,1.74896 0.67363,4.54553 -2.22463,6.23524 -0.73141,0.42642 -3.26017,0.40822 -4.25536,-0.0306 z M 61.798949,117.5126 c -0.10914,-0.11559 -0.198437,-5.67093 -0.198437,-12.3452 0,-10.440881 0.05438,-12.155911 0.389526,-12.284511 0.393482,-0.151 3.706734,0.0898 20.77714,1.5098 5.165989,0.42974 11.595363,0.95866 14.287503,1.17537 6.437149,0.51817 22.503199,1.87667 28.178119,2.38265 2.47385,0.22058 5.62901,0.48784 7.01146,0.59392 l 2.51354,0.19288 0.60064,2.381251 c 0.33035,1.30969 0.74707,3.57188 0.92604,5.02708 0.36381,2.95812 0.43746,8.4439 0.11765,8.76305 -0.11427,0.11403 -3.04044,0.25726 -6.5026,0.3183 -8.19825,0.14453 -8.92286,-0.0605 -12.79955,-3.62178 -2.62867,-2.41479 -5.07881,-3.33454 -8.35387,-3.13591 -1.75962,0.10671 -2.5377,0.30002 -3.89275,0.9671 -2.14771,1.05731 -4.30358,2.82342 -5.145649,4.21535 -0.35984,0.59481 -0.79604,1.13588 -0.96934,1.20238 -0.1733,0.0665 -1.41416,-0.056 -2.75748,-0.27223 -3.68127,-0.59257 -4.42594,-0.47096 -5.399289,0.88174 -0.441631,0.61375 -1.041091,1.17498 -1.332133,1.24717 -0.470147,0.11662 -4.59973,0.27406 -22.357291,0.85235 -2.692135,0.0877 -4.984088,0.0648 -5.093229,-0.0508 z M 124.83593,92.127029 c -3.56527,-0.61999 -10.05417,-1.73643 -14.4198,-2.48098 -4.36562,-0.74455 -12.104679,-2.07067 -17.197909,-2.94692 -5.093231,-0.87626 -11.463074,-1.94711 -14.15521,-2.37967 -14.311015,-2.29946 -16.829031,-2.7372 -17.13177,-2.97822 -0.217203,-0.17293 -0.330729,-1.02244 -0.330729,-2.47484 0,-2.14224 0.02086,-2.21675 0.665915,-2.37865 0.366253,-0.0919 9.325706,-0.1049 19.909895,-0.0288 20.718748,0.14889 22.223458,0.23552 28.504398,1.64097 9.20125,2.05893 15.937,6.19179 20.16767,12.3743 1.67621,2.44954 1.82631,2.84859 1.05684,2.80973 -0.32286,-0.0163 -3.50404,-0.5369 -7.0693,-1.15688 z"
       id="path1" /></g></svg>
